<svg width="45" height="45" viewBox="0 0 45 45" fill="none" xmlns="http://www.w3.org/2000/svg">
<path d="M19.0266 15.5306V18.6289H16.7586V22.4156H19.0266V33.6724H23.6886V22.4156H26.8161C26.8161 22.4156 27.1109 20.5999 27.2526 18.6131H23.7066V16.0256C23.7066 15.6364 24.2151 15.1166 24.7191 15.1166H27.2571V11.1724H23.8034C18.9119 11.1724 19.0266 14.9636 19.0266 15.5306Z" fill="white"/>
<path d="M9 4.5C7.80653 4.5 6.66193 4.97411 5.81802 5.81802C4.97411 6.66193 4.5 7.80653 4.5 9V36C4.5 37.1935 4.97411 38.3381 5.81802 39.182C6.66193 40.0259 7.80653 40.5 9 40.5H36C37.1935 40.5 38.3381 40.0259 39.182 39.182C40.0259 38.3381 40.5 37.1935 40.5 36V9C40.5 7.80653 40.0259 6.66193 39.182 5.81802C38.3381 4.97411 37.1935 4.5 36 4.5H9ZM9 0H36C38.3869 0 40.6761 0.948212 42.364 2.63604C44.0518 4.32387 45 6.61305 45 9V36C45 38.3869 44.0518 40.6761 42.364 42.364C40.6761 44.0518 38.3869 45 36 45H9C6.61305 45 4.32387 44.0518 2.63604 42.364C0.948212 40.6761 0 38.3869 0 36V9C0 6.61305 0.948212 4.32387 2.63604 2.63604C4.32387 0.948212 6.61305 0 9 0Z" fill="white"/>
</svg>
