<svg width="109" height="73" fill="none" xmlns="http://www.w3.org/2000/svg"><path d="M89.799 43.234c-.009.124-.013.124-.028.25-.085.635-.243 1.253-.331 1.888a37.35 37.35 0 00-.214 1.775c-.038.42-.023.887-.032 1.334a5.779 5.779 0 011.718-.264h.276c-.388-1.64-.855-3.232-1.39-4.983zM82.173 28.449c-6.834-8.637-16.685-14.065-27.616-14.065-10.932 0-20.784 5.428-27.618 14.065-4.44 5.61-7.608 12.576-8.966 20.282l1.947-.97a.486.486 0 01.19-.079c.063-.01.127-.016.19-.016a.869.869 0 01.458.126c.136.084.24.208.301.355.041.062.068.133.078.206.011.079.016.158.016.238v.094a.142.142 0 01-.016.064.141.141 0 00-.016.064 5.81 5.81 0 011.22-.366c.409-.073.822-.12 1.238-.142h.16c.486 0 .97.055 1.445.165 3.33-15.512 15.23-27.025 29.362-27.025 12.376 0 23.04 8.831 27.735 21.446l.1-.039c.052-.021.105-.038.16-.051l-.048.021.081-.036.06-.02a.676.676 0 01.087-.03l.087-.026h.01l.02-.012a.77.77 0 01.191-.087h.009c.065-.028.13-.052.196-.078l.03-.01.096-.049c.061-.03.125-.057.191-.078l4.746-2.372a1.39 1.39 0 01.237-.096.93.93 0 01.143-.027 44.053 44.053 0 00-6.504-11.452z" fill="#A0CED9"/><path d="M54.557 0C28.289 0 6.525 21.688 3.159 49.705a7.17 7.17 0 014.438-1.563c.423 0 .845.037 1.262.112.646.02 1.287.12 1.91.298 3.69-23.354 21.916-41.158 43.788-41.158 22.649 0 41.387 19.078 44.128 43.653a3.33 3.33 0 01.239-.486c.302-.5.713-.925 1.201-1.243a5.095 5.095 0 011.775-.796.75.75 0 01.253-.087c.151-.023.299-.041.45-.055l.051-.01c.079.001.159-.004.237-.015h.237a.649.649 0 01.207-.032h.513c.567-.013 1.135-.016 1.703-.06a.745.745 0 01.139-.105c.016-.01.032-.016.048-.025C101.757 20.873 80.323 0 54.557 0z" fill="#FFC09F"/><path d="M54.557 7.394c-21.873 0-40.098 17.804-43.789 41.158.252.077.497.172.734.285.731.355 1.327.92 1.966 1.42.126.084.248.178.367.27h.012c.455-.169.915-.325 1.371-.495a.592.592 0 01.236-.032l2.523-1.258c1.362-7.707 4.526-14.672 8.966-20.283 6.828-8.657 16.68-14.102 27.617-14.102 10.937 0 20.788 5.445 27.616 14.102a44.05 44.05 0 016.503 11.453h.017a.377.377 0 01.103-.016c.312-.004.616.094.867.28.85.636 1.221 2.174.335 2.944a.391.391 0 01-.188.089c.504 1.657.918 3.34 1.239 5.043.2-.023.4-.034.601-.035a5.98 5.98 0 014.68 2.11 7.312 7.312 0 011.558 2.73c.002-.516.146-1.02.415-1.46a3.41 3.41 0 01.354-.477l.029-.075c-2.745-24.573-21.49-43.65-44.132-43.65z" fill="#FFEE93"/><path d="M10.531 63.374a7.176 7.176 0 01-3.415.863 7.047 7.047 0 01-4.992-2.004 6.484 6.484 0 01-2.123-4.917 6.651 6.651 0 01.554-2.695c.36-.834.88-1.589 1.532-2.22a7.169 7.169 0 014.965-2.03c.483 0 .965.047 1.439.142.48.097.943.263 1.376.491.442.212.852.485 1.218.811.353.312.676.657.964 1.031a.74.74 0 01.126.238 1 1 0 01-.078.713.831.831 0 01-.333.355L3.512 58.65c.206.606.493 1.182.852 1.712.375.52.858.954 1.416 1.269.346.185.712.329 1.092.427.346.093.703.142 1.061.144a3.902 3.902 0 002.055-.571 5.21 5.21 0 001.645-1.617.84.84 0 01.284-.317c.109-.064.229-.108.353-.128.022-.02.05-.031.08-.03h.158c.029-.001.058.01.08.03a.417.417 0 01.319.128c.122.08.225.19.3.317a.799.799 0 01.065.675 1.627 1.627 0 01-.142.301 6.864 6.864 0 01-2.599 2.385zm-3.05-10.258a3.428 3.428 0 00-1.25-.236 3.837 3.837 0 00-.665.062c-.24.045-.474.12-.696.224-.589.252-1.074.699-1.374 1.267a3.965 3.965 0 00-.459 2.062v.38l5.565-3.044a3.423 3.423 0 00-1.122-.715zM31.276 63.628a.926.926 0 01-.727.286h-6.515a.87.87 0 01-.708-.286.931.931 0 01-.237-.603.874.874 0 01.587-.844.866.866 0 01.361-.044h1.993v-6.374c0-1.097-.306-1.906-.917-2.425a3.143 3.143 0 00-2.088-.778h-.157a.244.244 0 01-.096.032h-.094a3.74 3.74 0 00-2.404 1.078 3.312 3.312 0 00-.949 2.443v6.024h1.556a.94.94 0 01.743.27.91.91 0 01.237.618.932.932 0 01-.237.603.915.915 0 01-.743.286H14.99a.87.87 0 01-.708-.286.923.923 0 01-.169-.961.87.87 0 01.88-.53h1.328V53.64l-.664.355c-.08.041-.165.074-.253.096a1.034 1.034 0 01-.253.032.78.78 0 01-.458-.144.832.832 0 01-.301-.355 12.198 12.198 0 01-.062-.19.712.712 0 01-.032-.223v-.11a.258.258 0 01.032-.112.71.71 0 01.158-.316c.098-.117.218-.214.353-.285l4.778-2.38a.519.519 0 01.19-.078c.062-.01.126-.016.19-.016a.868.868 0 01.459.126c.134.083.24.208.299.355a.49.49 0 01.08.206c.01.078.015.158.015.237v.096a.13.13 0 01-.016.062.142.142 0 00-.016.064c.392-.165.8-.287 1.218-.364.413-.074.83-.122 1.249-.143h.157a6.234 6.234 0 013.844 1.3c1.149.869 1.723 2.19 1.723 3.965v6.342h1.55a.95.95 0 01.727.27.878.878 0 01.253.617.899.899 0 01-.265.582zM45.536 51.673a3.807 3.807 0 01-.853 1.205c-.17.19-.368.356-.586.492-.225.14-.462.261-.707.363.107.283.187.575.237.873.052.299.079.6.08.904a5.158 5.158 0 01-1.74 3.964 5.83 5.83 0 01-4.048 1.585c-.41 0-.817-.043-1.218-.127a5.065 5.065 0 01-1.154-.381c-.217.156-.404.35-.553.571a1.282 1.282 0 00-.237.73.745.745 0 00.364.65c.258.163.541.283.837.356l.49.064c.131.019.264.03.396.032h1.519c.358.001.717.022 1.074.062.385.044.766.119 1.14.223a8 8 0 012.97 1.395c.906.676 1.36 1.616 1.36 2.822a3.276 3.276 0 01-1.344 2.759 8.699 8.699 0 01-2.96 1.474c-.412.105-.829.184-1.25.238a8.994 8.994 0 01-1.153.08 12.376 12.376 0 01-2.058-.19 7.096 7.096 0 01-2.863-1.189c-.853-.603-1.28-1.517-1.281-2.743 0-.723.24-1.426.681-1.998a7.378 7.378 0 011.532-1.555.966.966 0 00.128-.078.832.832 0 01.126-.08 2.623 2.623 0 01-1.075-.935 2.443 2.443 0 01-.412-1.38 2.846 2.846 0 01.289-1.26 3.79 3.79 0 01.727-1.031 5.498 5.498 0 01-1.359-1.838 5.307 5.307 0 01-.474-2.22 5.11 5.11 0 011.74-3.933 5.781 5.781 0 014.014-1.586c.88 0 1.75.194 2.546.571.792.367 1.49.91 2.04 1.587.184-.04.36-.11.522-.208.155-.093.299-.204.427-.332a2.09 2.09 0 00.442-.65c.105-.246.16-.51.158-.776a.877.877 0 01.285-.71.918.918 0 01.601-.24c.233 0 .457.086.632.24a.875.875 0 01.285.71 3.572 3.572 0 01-.317 1.49zm-5.47 2.504c-.066-.152-.14-.3-.222-.444a5.017 5.017 0 00-1.01-1.284 2.01 2.01 0 00-1.393-.586 1.82 1.82 0 00-.664.126 1.768 1.768 0 00-1.061 1.047 4.83 4.83 0 00-.326 1.618v.128c-.001.292.025.584.078.871.053.287.112.546.177.778a4.683 4.683 0 00.378.857c.284.477.636.91 1.044 1.284.37.37.87.58 1.391.586a1.685 1.685 0 00.634-.126 1.757 1.757 0 001.061-1.047 4.876 4.876 0 00.333-1.617v-.127c0-.297-.021-.594-.064-.888a3.414 3.414 0 00-.189-.76c-.051-.13-.104-.267-.166-.416zm1.075 13.32a2.744 2.744 0 00-.775-1.999 2.576 2.576 0 00-1.913-.791 2.812 2.812 0 00-2.024.823 2.785 2.785 0 00-.853 2.094 2.418 2.418 0 00.775 1.839 2.65 2.65 0 001.88.729 3.019 3.019 0 002.025-.761 2.47 2.47 0 00.885-1.967v.032zM60.176 61.312a1.038 1.038 0 00-.061.16 53.55 53.55 0 00-.38.777 3.676 3.676 0 01-.475.745 3.023 3.023 0 01-.964.792c-.377.193-.795.29-1.218.286-.499.007-.992-.107-1.438-.332a2.249 2.249 0 01-.997-1.031 6.79 6.79 0 01-1.787.967 7.11 7.11 0 01-2.008.428h-.616a.963.963 0 01-.237-.032 4.34 4.34 0 01-2.198-.794 2.286 2.286 0 01-.996-1.996c0-1.121.4-2 1.202-2.633a9.472 9.472 0 012.72-1.49 2.383 2.383 0 01.57-.19 16.3 16.3 0 011.627-.476 61.48 61.48 0 001.438-.355v-2.055c.01-.314-.06-.626-.205-.905a1.002 1.002 0 00-.743-.46.652.652 0 00-.19-.032h-.188c-.085.001-.17.007-.254.017a1.754 1.754 0 01-.253.015 4.078 4.078 0 00-1.592.71c-.475.33-.896.732-1.25 1.19-.06.082-.129.156-.205.223a2.454 2.454 0 01-.205.158.745.745 0 01-.412.127.488.488 0 01-.221-.047 1.339 1.339 0 00-.19-.08 1.212 1.212 0 01-.33-.334.782.782 0 01-.144-.46l.064-.253c.022-.088.053-.173.094-.254a6.372 6.372 0 011.957-2.238 5.458 5.458 0 012.75-.997h.143a.556.556 0 00.177-.032h.277a5.27 5.27 0 012.768.71c.789.473 1.184 1.313 1.185 2.52v7.706a.313.313 0 00.062.206c.053.061.118.11.191.144h.094a.396.396 0 00.27-.096c.086-.077.165-.162.236-.254l.144-.285a3.15 3.15 0 01.177-.316c.067-.105.095-.178.157-.286a3.32 3.32 0 01.191-.286c.076-.098.166-.183.267-.253a.586.586 0 01.333-.096h.096a.247.247 0 01.093.032.26.26 0 01.16.064.835.835 0 01.474.999 1.397 1.397 0 01-.096.238l-.064.134zm-5.818-3.297c-.21.064-.436.126-.679.19-.242.064-.49.139-.743.222-.73.241-1.431.566-2.088.967-.632.39-.948.902-.948 1.539v.126a1.029 1.029 0 00.522.809c.29.176.624.27.964.27h.16c.106 0 .212-.017.314-.048a3.44 3.44 0 01.317-.079c.445-.15.865-.364 1.249-.635.363-.248.679-.56.932-.919v-2.442z" fill="#4F668B"/><path d="M67.417 50.546a.467.467 0 01.032.178v.16a.903.903 0 01-.096.411.759.759 0 01-.316.318c-.334.187-.612.46-.806.791-.199.335-.303.718-.3 1.107v15.073c0 .887-.359 1.679-1.076 2.374-.717.696-1.645 1.044-2.782 1.046a4.389 4.389 0 01-2.309-.572 2.905 2.905 0 01-1.297-1.585.343.343 0 01-.032-.143v-.178c0-.047.006-.095.016-.142a.748.748 0 00.016-.143 1.42 1.42 0 01.221-.476.708.708 0 01.38-.286.141.141 0 00.065-.016.14.14 0 01.061-.016h.128a.915.915 0 01.568.192c.167.122.28.304.317.508.047.283.174.546.364.76a1.061 1.061 0 00.805.285 1.293 1.293 0 001.092-.522c.258-.334.417-.734.458-1.155V53.668l-.663.355a.264.264 0 01-.16.064c-.057.02-.117.035-.177.047a.83.83 0 01-.932-.49l-.064-.19a.603.603 0 01-.032-.19c0-.17.05-.334.144-.475.108-.16.255-.29.426-.38l4.744-2.379a.494.494 0 01.19-.078c.062-.01.125-.016.189-.016a.864.864 0 01.458.126.75.75 0 01.3.355c.027.03.049.078.068.13zm-2.024-3.742a1.652 1.652 0 01-1.239.523 1.608 1.608 0 01-1.201-.523 1.695 1.695 0 01-.506-1.22c.005-.453.187-.886.506-1.206a1.726 1.726 0 011.873-.382c.213.087.406.217.567.382a1.644 1.644 0 01.506 1.205 1.701 1.701 0 01-.504 1.221h-.002zM79.846 62.343a6.209 6.209 0 01-4.838 2.172 6.286 6.286 0 01-4.87-2.172 7.338 7.338 0 010-9.988 6.303 6.303 0 014.87-2.172 6.19 6.19 0 014.838 2.164 7.428 7.428 0 010 9.99v.006zm-1.582-6.342a9.35 9.35 0 00-.283-.617 8.462 8.462 0 00-1.678-2.062c-.694-.636-1.453-.942-2.275-.92h-.317a.701.701 0 00-.141.017 2.03 2.03 0 00-.177.046 2.315 2.315 0 00-1.644 1.242 5.17 5.17 0 00-.57 2.094v.317c0 .351.031.7.096 1.045.063.34.136.657.22.952a9.483 9.483 0 00.506 1.207 7.84 7.84 0 001.644 2.06c.697.635 1.456.941 2.278.919h.317a.723.723 0 00.141-.015c.06-.012.12-.028.177-.047a2.424 2.424 0 001.676-1.285 5.058 5.058 0 00.53-2.172v-.224a6.975 6.975 0 00-.282-1.966 5.741 5.741 0 00-.218-.59zM95.978 52.585a5.995 5.995 0 00-4.673-2.108c-.65 0-1.297.108-1.913.318a7.775 7.775 0 00-1.755.855v-5.868c-.006-.381.099-.756.3-1.079.2-.316.464-.586.776-.793a1.24 1.24 0 00.41-.412.89.89 0 00.111-.633.474.474 0 00-.08-.19.834.834 0 00-.758-.508.818.818 0 00-.206.03 1.38 1.38 0 00-.237.096l-4.777 2.378a1.203 1.203 0 00-.354.286.728.728 0 00-.157.355.108.108 0 00-.032.08v.078c-.001.08.01.16.032.237.019.075.04.144.061.206a.835.835 0 00.997.476c.082-.023.161-.055.237-.094l.695-.355v17.38a.696.696 0 00.237.553c.158.137.349.23.554.27.05.023.104.04.16.047a1.185 1.185 0 00.663-.08.863.863 0 00.354-.251l.697-.921c.55.467 1.183.828 1.865 1.064.682.241 1.4.364 2.123.364a5.98 5.98 0 004.68-2.108 7.194 7.194 0 000-9.673h-.01zM94.739 57.2v.268c0 .101-.01.202-.03.302a5.268 5.268 0 01-1.239 2.855 3.454 3.454 0 01-2.772 1.306 3.33 3.33 0 01-1.724-.476 4.46 4.46 0 01-1.344-1.205v-6.093a5.31 5.31 0 011.344-1.221 3.145 3.145 0 011.724-.492 3.395 3.395 0 012.797 1.331 5.523 5.523 0 011.22 2.95.769.769 0 01.03.223l-.006.252zM107.736 62.856a6.46 6.46 0 01-2.782 1.343 6.34 6.34 0 01-1.486.19 8.215 8.215 0 01-1.486-.128 6.79 6.79 0 01-1.266-.354 1.652 1.652 0 01-.284.11c-.103.031-.21.047-.317.047a1.237 1.237 0 01-.49-.177.757.757 0 01-.331-.428l-.791-2.38a.532.532 0 01-.032-.177v-.142a.84.84 0 01.157-.523.942.942 0 01.38-.302.53.53 0 01.158-.048c.063-.01.126-.016.19-.016h.127a.676.676 0 01.354.178c.11.098.196.219.253.355l.354.857c.17.297.423.54.727.697.32.17.66.298 1.012.38a5.255 5.255 0 001.101.128c.381.001.761-.059 1.123-.178.331-.108.645-.263.933-.46.224-.14.414-.329.554-.553.112-.185.161-.4.141-.616a1.256 1.256 0 00-.316-.821 2.152 2.152 0 00-.86-.57l-1.867-.774a219.25 219.25 0 01-1.897-.807 3.64 3.64 0 01-1.612-1.327 3.433 3.433 0 01-.633-1.993 3.01 3.01 0 01.444-1.565c.302-.5.712-.925 1.201-1.242a5.013 5.013 0 011.186-.618c.434-.16.884-.272 1.343-.334.079 0 .158-.005.237-.015a1.69 1.69 0 01.237-.017.654.654 0 01.207-.031h.237c.301 0 .602.016.901.047.294.032.585.091.869.178a.901.901 0 01.791-.508h.063c.176.025.344.09.49.192a.835.835 0 01.333.444c.169.443.332.887.49 1.33.158.444.311.9.458 1.365a1.198 1.198 0 01.064.348c-.013.189-.079.37-.191.523a.719.719 0 01-.41.27.256.256 0 00-.08.016.258.258 0 01-.078.016.11.11 0 01-.036.024.114.114 0 01-.044.008h-.079a.803.803 0 01-.474-.158 1.033 1.033 0 01-.354-.475 3.648 3.648 0 01-.112-.318 4.012 4.012 0 00-.111-.318 1.487 1.487 0 00-.616-.665 3.755 3.755 0 00-.869-.382 6.926 6.926 0 00-.531-.094 3.786 3.786 0 00-.474-.032 2.4 2.4 0 00-.333.016c-.111.01-.222.026-.332.048a2.504 2.504 0 00-1.062.442 1.132 1.132 0 00-.49.981.761.761 0 00.237.554c.158.155.346.276.552.355l.934.38c.305.127.616.254.933.38.097.06.197.112.301.16l.299.125c.21.084.417.169.617.252a69 69 0 00.616.254 4.96 4.96 0 011.98 1.545c.525.664.809 1.487.805 2.334a3.282 3.282 0 01-1.263 2.674z" fill="#4F668B"/></svg>