<svg width="45" height="45" viewBox="0 0 45 45" fill="none" xmlns="http://www.w3.org/2000/svg">
<path d="M33.75 15.6308C32.922 15.9908 32.0332 16.2383 31.0995 16.3463C32.0535 15.7838 32.7825 14.8928 33.129 13.833C32.2199 14.3628 31.228 14.7355 30.195 14.9355C29.7605 14.4801 29.2377 14.1179 28.6586 13.8711C28.0795 13.6243 27.4562 13.498 26.8268 13.5C24.2775 13.5 22.212 15.5363 22.212 18.045C22.212 18.4005 22.2525 18.747 22.3313 19.08C20.5027 18.9932 18.7124 18.5262 17.0745 17.7088C15.4365 16.8913 13.987 15.7415 12.8183 14.3325C12.4078 15.0235 12.1916 15.8126 12.1928 16.6163C12.1928 18.1913 13.0095 19.5863 14.247 20.3985C13.5145 20.3756 12.7977 20.1805 12.1545 19.8293V19.8855C12.1615 20.9418 12.5343 21.963 13.2096 22.7753C13.8848 23.5876 14.8208 24.1407 15.858 24.3405C15.1771 24.5206 14.4646 24.5467 13.7723 24.417C14.074 25.3257 14.6513 26.1179 15.4238 26.6836C16.1963 27.2493 17.1258 27.5604 18.0832 27.5738C16.4407 28.8395 14.4239 29.5234 12.3502 29.5178C11.979 29.5178 11.6123 29.4953 11.25 29.4548C13.3661 30.7942 15.8197 31.5036 18.324 31.5C26.8155 31.5 31.4573 24.5745 31.4573 18.567L31.4415 17.9775C32.3467 17.3414 33.1288 16.5463 33.75 15.6308Z" fill="white"/>
<path d="M9 4.5C7.80653 4.5 6.66193 4.97411 5.81802 5.81802C4.97411 6.66193 4.5 7.80653 4.5 9V36C4.5 37.1935 4.97411 38.3381 5.81802 39.182C6.66193 40.0259 7.80653 40.5 9 40.5H36C37.1935 40.5 38.3381 40.0259 39.182 39.182C40.0259 38.3381 40.5 37.1935 40.5 36V9C40.5 7.80653 40.0259 6.66193 39.182 5.81802C38.3381 4.97411 37.1935 4.5 36 4.5H9ZM9 0H36C38.3869 0 40.6761 0.948212 42.364 2.63604C44.0518 4.32387 45 6.61305 45 9V36C45 38.3869 44.0518 40.6761 42.364 42.364C40.6761 44.0518 38.3869 45 36 45H9C6.61305 45 4.32387 44.0518 2.63604 42.364C0.948212 40.6761 0 38.3869 0 36V9C0 6.61305 0.948212 4.32387 2.63604 2.63604C4.32387 0.948212 6.61305 0 9 0Z" fill="white"/>
</svg>
