<svg width="45" height="45" viewBox="0 0 45 45" fill="none" xmlns="http://www.w3.org/2000/svg">
<path d="M22.494 10.9553C16.1054 10.9553 10.9495 16.1113 10.9495 22.5C10.9495 28.8887 16.1054 34.0447 22.494 34.0447C28.8825 34.0447 34.0384 28.8887 34.0384 22.5C34.0384 16.1113 28.8825 10.9553 22.494 10.9553ZM22.494 30.0032C18.3625 30.0032 14.9909 26.6315 14.9909 22.5C14.9909 18.3685 18.3625 14.9968 22.494 14.9968C26.6254 14.9968 29.997 18.3685 29.997 22.5C29.997 26.6315 26.6254 30.0032 22.494 30.0032ZM34.5112 7.79194C33.0196 7.79194 31.8151 8.9965 31.8151 10.4881C31.8151 11.9798 33.0196 13.1843 34.5112 13.1843C36.0028 13.1843 37.2074 11.9854 37.2074 10.4881C37.2078 10.1339 37.1384 9.78314 37.003 9.45582C36.8677 9.1285 36.6691 8.8311 36.4187 8.58064C36.1682 8.33019 35.8708 8.13161 35.5435 7.99627C35.2162 7.86093 34.8654 7.79149 34.5112 7.79194ZM44.9975 22.5C44.9975 19.3929 45.0256 16.3139 44.8511 13.2125C44.6767 9.61004 43.8549 6.41288 41.2206 3.7786C38.5808 1.13869 35.3893 0.322516 31.7869 0.148023C28.6799 -0.0264698 25.601 0.00167425 22.4996 0.00167425C19.3925 0.00167425 16.3136 -0.0264698 13.2122 0.148023C9.60986 0.322516 6.41276 1.14432 3.77853 3.7786C1.13867 6.41851 0.32251 9.61004 0.14802 13.2125C-0.0264693 16.3196 0.00167422 19.3985 0.00167422 22.5C0.00167422 25.6015 -0.0264693 28.6861 0.14802 31.7875C0.32251 35.39 1.1443 38.5871 3.77853 41.2214C6.41839 43.8613 9.60986 44.6775 13.2122 44.852C16.3193 45.0265 19.3982 44.9983 22.4996 44.9983C25.6066 44.9983 28.6855 45.0265 31.7869 44.852C35.3893 44.6775 38.5864 43.8557 41.2206 41.2214C43.8605 38.5815 44.6767 35.39 44.8511 31.7875C45.0313 28.6861 44.9975 25.6071 44.9975 22.5ZM40.0442 35.7727C39.6333 36.7972 39.138 37.5627 38.3444 38.3507C37.5507 39.1444 36.7908 39.6397 35.7664 40.0506C32.8057 41.227 25.7755 40.9625 22.494 40.9625C19.2124 40.9625 12.1765 41.227 9.21585 40.0562C8.19143 39.6453 7.42593 39.15 6.63791 38.3563C5.84426 37.5627 5.34894 36.8028 4.93804 35.7783C3.76727 32.812 4.03182 25.7816 4.03182 22.5C4.03182 19.2184 3.76727 12.1824 4.93804 9.22165C5.34894 8.19721 5.84426 7.43169 6.63791 6.64366C7.43156 5.85563 8.19143 5.35467 9.21585 4.94376C12.1765 3.77297 19.2124 4.03753 22.494 4.03753C25.7755 4.03753 32.8114 3.77297 35.7721 4.94376C36.7965 5.35467 37.562 5.85 38.35 6.64366C39.1436 7.43732 39.639 8.19721 40.0499 9.22165C41.2206 12.1824 40.9561 19.2184 40.9561 22.5C40.9561 25.7816 41.2206 32.812 40.0442 35.7727Z" fill="white"/>
</svg>
