<svg width="45" height="45" viewBox="0 0 45 45" fill="none" xmlns="http://www.w3.org/2000/svg">
<path d="M34.5 25.1828V33.501H29.6783V25.7385C29.6783 23.79 28.9807 22.4603 27.2347 22.4603C25.9028 22.4603 25.1085 23.3558 24.7597 24.2243C24.6337 24.5348 24.6 24.9668 24.6 25.3988V33.501H19.776C19.776 33.501 19.8413 20.3565 19.776 18.9953H24.6V21.0495L24.5685 21.0968H24.6V21.0518C25.2413 20.0618 26.3842 18.6533 28.947 18.6533C32.1195 18.6533 34.5 20.7278 34.5 25.1828ZM14.7293 12C13.08 12 12 13.0845 12 14.5065C12 15.9015 13.0485 17.0153 14.6663 17.0153H14.6978C16.3808 17.0153 17.427 15.8993 17.427 14.5065C17.3955 13.0845 16.3808 12 14.7293 12ZM12.2857 33.501H17.1097V18.9953H12.2857V33.501Z" fill="white"/>
<path d="M9 4.5C7.80653 4.5 6.66193 4.97411 5.81802 5.81802C4.97411 6.66193 4.5 7.80653 4.5 9V36C4.5 37.1935 4.97411 38.3381 5.81802 39.182C6.66193 40.0259 7.80653 40.5 9 40.5H36C37.1935 40.5 38.3381 40.0259 39.182 39.182C40.0259 38.3381 40.5 37.1935 40.5 36V9C40.5 7.80653 40.0259 6.66193 39.182 5.81802C38.3381 4.97411 37.1935 4.5 36 4.5H9ZM9 0H36C38.3869 0 40.6761 0.948212 42.364 2.63604C44.0518 4.32387 45 6.61305 45 9V36C45 38.387 44.0518 40.6761 42.364 42.364C40.6761 44.0518 38.3869 45 36 45H9C6.61305 45 4.32387 44.0518 2.63604 42.364C0.948212 40.6761 0 38.387 0 36V9C0 6.61305 0.948212 4.32387 2.63604 2.63604C4.32387 0.948212 6.61305 0 9 0Z" fill="white"/>
</svg>
