<?xml version="1.0" encoding="utf-8"?>
<!-- Generator: Adobe Illustrator 25.2.3, SVG Export Plug-In . SVG Version: 6.00 Build 0)  -->
<svg version="1.1" id="Layer_1" xmlns="http://www.w3.org/2000/svg" xmlns:xlink="http://www.w3.org/1999/xlink" x="0px" y="0px"
	 viewBox="0 0 1000 1000" style="enable-background:new 0 0 1000 1000;" xml:space="preserve">
<style type="text/css">
	.st0{fill:#FFEE93;}
	.st1{fill:#FCF5C7;}
	.st2{fill:#ADF7B6;}
	.st3{fill:#A0CED9;}
	.st4{clip-path:url(#SVGID_2_);fill:#FFC09F;}
	.st5{fill:#6F868B;}
</style>
<g>
	<circle class="st0" cx="514.36" cy="506.78" r="465.35"/>
	<circle class="st1" cx="512.07" cy="516.78" r="402.19"/>
	<circle class="st2" cx="512.07" cy="516.78" r="339.04"/>
	<circle class="st3" cx="512.07" cy="516.78" r="276.99"/>
	<g>
		<defs>
			<ellipse id="SVGID_1_" cx="514.52" cy="506.78" rx="465.2" ry="465.35"/>
		</defs>
		<clipPath id="SVGID_2_">
			<use xlink:href="#SVGID_1_"  style="overflow:visible;"/>
		</clipPath>
		<rect x="-2.24" y="591.48" class="st4" width="1032.7" height="424.19"/>
	</g>
	<g>
		<path class="st3" d="M642.68,773.04c-40.86,22.53-84.13,33.79-129.8,33.79c-72.91,0-136.2-26.28-189.88-78.86
			c-53.69-52.57-80.51-117.23-80.51-194.01c0-37.54,7-73,21.02-106.39c14.02-33.37,33.45-62.58,58.29-87.63
			c25.64-25.86,54.89-45.66,87.73-59.43s66.49-20.65,100.95-20.65c18.42,0,36.65,1.89,54.67,5.64s35.45,10.22,52.28,19.39
			c16.82,8.35,32.25,18.99,46.27,31.92c14.02,12.95,26.24,26.5,36.66,40.68c2.4,3.33,4,6.47,4.8,9.39c0.8,2.92,1.2,6.47,1.2,10.64
			c0,5.85-1.42,11.7-4.22,17.53c-2.8,5.83-7,10.43-12.61,13.76L375.88,586.54c8.8,25.88,19.62,48.4,32.45,67.6
			c12.81,19.19,30.84,35.87,54.09,50.05c13.61,7.51,27.43,13.15,41.45,16.9c14.02,3.75,27.44,5.62,40.26,5.62
			c28.04,0,54.07-7.5,78.11-22.53c24.04-15.01,44.87-36.29,62.5-63.83c3.2-5.83,6.8-10.01,10.8-12.51c4-2.5,8.42-4.18,13.22-5.01
			c0.8-0.83,1.8-1.25,3-1.25c1.2,0,2.2,0,3.02,0c0.8,0,1.8,0,3,0c1.2,0,2.2,0.42,3,1.25c2.4,0,4.6,0.43,6.6,1.27
			c2,0.83,3.82,2.08,5.42,3.75c4.8,3.33,8.6,7.51,11.41,12.51c2.8,5.01,4.22,10.45,4.22,16.28c0,3.33-0.6,6.89-1.8,10.64
			c-1.2,3.75-3.02,7.72-5.42,11.89C716.37,719.22,683.53,750.51,642.68,773.04z M526.7,368.56c-15.64-6.25-31.46-9.39-47.47-9.39
			c-8.02,0-16.44,0.83-25.24,2.5c-8.82,1.67-17.64,4.6-26.44,8.76c-22.44,10.01-39.86,26.69-52.27,50.04
			c-12.42,23.36-18.22,50.45-17.42,81.31c0,2.52,0,5.01,0,7.51c0,2.5,0,5,0,7.5l211.51-120.09
			C556.55,384.19,542.32,374.81,526.7,368.56z"/>
	</g>
	<g>
		<path class="st5" d="M614.82,786.63c-41.53,23.4-85.5,35.09-131.92,35.09c-74.1,0-138.42-27.29-192.99-81.9
			c-54.56-54.59-81.83-121.75-81.83-201.49c0-38.99,7.12-75.81,21.37-110.49c14.25-34.66,33.99-64.99,59.24-91
			c26.06-26.86,55.78-47.42,89.16-61.72s67.58-21.45,102.6-21.45c18.72,0,37.25,1.96,55.56,5.86c18.32,3.89,36.03,10.62,53.14,20.13
			c17.1,8.67,32.77,19.72,47.02,33.15c14.25,13.44,26.67,27.52,37.26,42.25c2.44,3.46,4.07,6.72,4.88,9.75
			c0.81,3.03,1.22,6.72,1.22,11.05c0,6.07-1.44,12.15-4.29,18.2c-2.85,6.06-7.12,10.83-12.81,14.29L343.66,592.95
			c8.95,26.87,19.94,50.27,32.98,70.2c13.01,19.93,31.35,37.26,54.97,51.98c13.83,7.8,27.88,13.66,42.13,17.55
			c14.25,3.89,27.89,5.84,40.92,5.84c28.5,0,54.95-7.79,79.39-23.4c24.43-15.59,45.6-37.69,63.53-66.29
			c3.25-6.06,6.91-10.4,10.98-13c4.07-2.6,8.56-4.34,13.44-5.21c0.81-0.87,1.83-1.3,3.05-1.3c1.22,0,2.24,0,3.07,0
			c0.81,0,1.83,0,3.05,0s2.24,0.43,3.05,1.3c2.44,0,4.68,0.45,6.71,1.31c2.03,0.87,3.88,2.16,5.51,3.89c4.88,3.46,8.74,7.8,11.59,13
			c2.85,5.21,4.29,10.85,4.29,16.91c0,3.46-0.61,7.15-1.83,11.05c-1.22,3.89-3.07,8.02-5.51,12.35
			C689.71,730.74,656.33,763.23,614.82,786.63z M496.95,366.56c-15.89-6.49-31.97-9.75-48.24-9.75c-8.15,0-16.71,0.87-25.65,2.6
			c-8.96,1.73-17.93,4.78-26.87,9.1c-22.81,10.4-40.52,27.72-53.12,51.97c-12.62,24.26-18.52,52.4-17.71,84.45c0,2.61,0,5.21,0,7.8
			c0,2.6,0,5.19,0,7.79L540.31,395.8C527.28,382.8,512.82,373.05,496.95,366.56z"/>
	</g>
</g>
</svg>
