<svg width="109" height="73" viewBox="0 0 109 73" fill="none" xmlns="http://www.w3.org/2000/svg">
<path d="M89.7989 43.2338C89.79 43.358 89.7865 43.358 89.7706 43.484C89.6856 44.1192 89.5282 44.7368 89.4397 45.372C89.3583 45.9594 89.2787 46.5556 89.2256 47.1465C89.1884 47.5671 89.2026 48.0338 89.1937 48.4809C89.7499 48.3066 90.3292 48.2175 90.9119 48.2165C91.0057 48.2165 91.0888 48.2165 91.1879 48.2165C90.8004 46.5769 90.3333 44.9852 89.7989 43.2338Z" fill="#A0CED9"/>
<path d="M82.1726 28.4487C75.3389 19.8122 65.4884 14.384 54.5567 14.384C43.625 14.384 33.7727 19.8122 26.9391 28.4487C22.4996 34.0596 19.3305 41.0245 17.9733 48.7311L19.9197 47.7604C19.9771 47.721 20.0423 47.6944 20.1108 47.6824C20.1733 47.6717 20.2367 47.6664 20.3001 47.6664C20.4616 47.665 20.6203 47.7086 20.7584 47.7924C20.8936 47.8758 20.9989 48.0001 21.0592 48.1473C21.1 48.2093 21.1266 48.2796 21.1371 48.3531C21.148 48.4319 21.1533 48.5114 21.153 48.5909V48.685C21.1528 48.7072 21.1473 48.7291 21.1371 48.7488C21.1268 48.7686 21.1214 48.7905 21.1212 48.8127C21.513 48.6466 21.9218 48.524 22.3403 48.4472C22.7499 48.3743 23.1635 48.3269 23.5789 48.3052H23.7382C24.2248 48.3047 24.7098 48.36 25.1838 48.4702C28.5139 32.9576 40.4135 21.4447 54.5461 21.4447C66.9216 21.4447 77.5861 30.2764 82.2805 42.8912L82.3814 42.8522C82.433 42.8308 82.4862 42.8136 82.5406 42.8007L82.4928 42.822L82.5742 42.7865L82.6344 42.7653C82.6626 42.7539 82.6916 42.7444 82.7211 42.7369L82.8078 42.7102H82.8184L82.8379 42.6978C82.8973 42.6603 82.9616 42.631 83.029 42.6109H83.0378C83.1033 42.5825 83.1688 42.5594 83.2342 42.5328L83.2643 42.5222L83.3599 42.4742C83.4213 42.4431 83.4853 42.417 83.551 42.3962L88.2966 40.0237C88.3726 39.9845 88.4519 39.9524 88.5337 39.9278C88.5807 39.9152 88.6287 39.9063 88.6771 39.9012C87.0943 35.778 84.9016 31.9172 82.1726 28.4487Z" fill="#A0CED9"/>
<path d="M54.5567 0C28.2892 0 6.52495 21.6878 3.15945 49.7053C4.42188 48.6995 5.98496 48.1489 7.59724 48.142C8.02025 48.1418 8.44244 48.1792 8.85886 48.2537C9.50514 48.2733 10.1465 48.3735 10.7681 48.5519C14.4592 25.1978 32.6845 7.39431 54.5567 7.39431C77.2057 7.39431 95.9442 26.4719 98.6851 51.0468C98.7514 50.8785 98.8313 50.7159 98.924 50.5606C99.2258 50.0609 99.6366 49.6362 100.125 49.3184C100.492 49.0607 100.89 48.8524 101.311 48.6992C101.504 48.6301 101.701 48.5709 101.9 48.5217C101.979 48.4777 102.064 48.4483 102.153 48.4348C102.304 48.4117 102.452 48.3939 102.603 48.3797L102.654 48.3709C102.733 48.3713 102.813 48.3659 102.891 48.3549C102.928 48.3549 102.971 48.3549 103.011 48.3549H103.056C103.08 48.3549 103.103 48.3549 103.128 48.3549C103.195 48.3331 103.265 48.3223 103.335 48.323H103.572C103.663 48.323 103.749 48.323 103.848 48.323C104.415 48.3105 104.983 48.307 105.551 48.2626C105.593 48.2223 105.64 48.1872 105.69 48.1579C105.706 48.1473 105.722 48.142 105.738 48.1331C101.757 20.8733 80.3235 0 54.5567 0Z" fill="#FFC09F"/>
<path d="M54.5567 7.39429C32.6845 7.39429 14.4592 25.1978 10.7681 48.5518C11.0196 48.6288 11.265 48.7243 11.5024 48.8375C12.2332 49.1924 12.8295 49.7567 13.4683 50.2571C13.5939 50.3405 13.716 50.4346 13.8346 50.5269H13.8469C14.3017 50.3583 14.7618 50.2021 15.2183 50.0318C15.2938 50.0053 15.3738 49.9945 15.4536 49.9998L17.9768 48.7417C19.3393 41.0351 22.5031 34.0702 26.9427 28.4593C33.771 19.8015 43.6233 14.3574 54.5603 14.3574C65.4973 14.3574 75.3478 19.8015 82.1761 28.4593C84.9045 31.9279 87.0966 35.7887 88.6788 39.9118H88.6965C88.7299 39.9018 88.7644 39.8964 88.7992 39.8959C89.1109 39.892 89.4154 39.9905 89.6662 40.1763C90.5155 40.8115 90.8871 42.35 90.0006 43.1201C89.9472 43.1661 89.8824 43.1967 89.8131 43.2089C90.3173 44.866 90.7307 46.5496 91.0517 48.252C91.2515 48.2295 91.4523 48.2176 91.6533 48.2165C92.5405 48.1989 93.4205 48.379 94.2299 48.7439C95.0392 49.1087 95.7577 49.6492 96.3335 50.3263C97.0441 51.1125 97.5755 52.0444 97.8906 53.0573C97.8935 52.5415 98.0373 52.0364 98.3064 51.5969C98.4103 51.4277 98.5287 51.268 98.6603 51.1195L98.6886 51.045C95.9442 26.4718 77.1986 7.39429 54.5567 7.39429Z" fill="#FFEE93"/>
<path d="M10.531 63.3742C9.48147 63.941 8.30795 64.2374 7.11593 64.2366C5.25366 64.2554 3.45948 63.5353 2.12431 62.2332C1.44141 61.6127 0.898661 60.8529 0.532452 60.0049C0.166243 59.1569 -0.0149675 58.2401 0.00096671 57.3161C-0.00430529 56.3887 0.184366 55.4704 0.554805 54.6206C0.914614 53.7866 1.43539 53.0321 2.08715 52.4007C3.41861 51.1064 5.19788 50.3789 7.05223 50.3707C7.53522 50.3708 8.01705 50.4184 8.4908 50.5127C8.97065 50.61 9.43421 50.7755 9.86743 51.0042C10.3089 51.2164 10.7187 51.4893 11.0848 51.8152C11.4384 52.1271 11.7614 52.4723 12.0492 52.8461C12.1052 52.917 12.1478 52.9976 12.1748 53.0839C12.1978 53.1719 12.2085 53.2627 12.2066 53.3537C12.2048 53.508 12.1672 53.6599 12.0969 53.7973C12.0238 53.9462 11.908 54.0698 11.7643 54.1522L3.51156 58.6487C3.71799 59.2553 4.00485 59.8313 4.36443 60.3611C4.73916 60.8818 5.22214 61.3147 5.78 61.6299C6.12576 61.8152 6.49224 61.9588 6.87175 62.0575C7.21811 62.1505 7.57488 62.1988 7.93342 62.2013C8.65775 62.2053 9.36896 62.0075 9.98775 61.6299C10.6498 61.2211 11.2122 60.6687 11.6333 60.0133C11.699 59.8848 11.7965 59.7754 11.9165 59.6957C12.0256 59.6317 12.1456 59.5884 12.2703 59.5679C12.292 59.5479 12.3205 59.537 12.35 59.5377H12.5075C12.5369 59.537 12.5655 59.5479 12.5871 59.5679C12.6475 59.5678 12.7074 59.5786 12.764 59.5999C12.8173 59.6217 12.8655 59.6543 12.9056 59.6957C13.029 59.7767 13.132 59.8855 13.2064 60.0133C13.2802 60.1378 13.3187 60.2802 13.3179 60.425C13.3164 60.5144 13.3009 60.6031 13.2719 60.6876C13.2351 60.7928 13.1877 60.8939 13.1303 60.9893C12.4858 61.9977 11.5898 62.8198 10.531 63.3742ZM7.48044 53.1159C7.08228 52.96 6.65863 52.88 6.23121 52.8799C6.00806 52.8812 5.78545 52.902 5.56589 52.942C5.32573 52.9872 5.09213 53.0623 4.8705 53.1656C4.2812 53.4178 3.79594 53.8649 3.49563 54.4325C3.15928 55.0655 3.00087 55.7782 3.03735 56.4945V56.8742L8.60227 53.831C8.27847 53.5214 7.89736 53.2785 7.48044 53.1159Z" fill="white"/>
<path d="M31.276 63.6279C31.1828 63.7257 31.0695 63.802 30.9439 63.8513C30.8183 63.9007 30.6834 63.9219 30.5488 63.9136H24.0337C23.9018 63.9229 23.7696 63.902 23.647 63.8525C23.5244 63.803 23.4146 63.7262 23.3259 63.6279C23.1772 63.4619 23.0931 63.2477 23.0888 63.0246C23.086 62.9018 23.1092 62.7798 23.1567 62.6666C23.2043 62.5534 23.2752 62.4516 23.3647 62.3678C23.4543 62.2841 23.5605 62.2202 23.6764 62.1805C23.7923 62.1408 23.9152 62.1261 24.0372 62.1374H26.0296V55.7634C26.0296 54.6656 25.7241 53.857 25.113 53.3376C24.5347 52.8321 23.7923 52.5557 23.0251 52.5604H22.8676C22.8383 52.5776 22.8058 52.5885 22.772 52.5924H22.6783C21.7731 52.6477 20.9187 53.0304 20.2736 53.6695C19.958 53.9906 19.7111 54.373 19.5481 54.7931C19.385 55.2133 19.3091 55.6624 19.3252 56.113V62.1374H20.8805C21.0165 62.1258 21.1533 62.144 21.2816 62.1906C21.4098 62.2371 21.5266 62.311 21.6237 62.4071C21.7773 62.5757 21.862 62.7962 21.8608 63.0246C21.8565 63.2477 21.7723 63.4619 21.6237 63.6279C21.5293 63.7286 21.4134 63.8066 21.2847 63.8561C21.156 63.9055 21.0178 63.9252 20.8805 63.9136H14.99C14.8581 63.9229 14.7259 63.902 14.6033 63.8525C14.4807 63.803 14.3709 63.7262 14.2822 63.6279C14.1329 63.4623 14.0486 63.2479 14.0451 63.0246C14.0423 62.9018 14.0655 62.7798 14.1131 62.6666C14.1606 62.5534 14.2315 62.4516 14.3211 62.3678C14.4106 62.2841 14.5168 62.2202 14.6327 62.1805C14.7486 62.1408 14.8716 62.1261 14.9935 62.1374H16.3206V53.6393L15.6571 53.9942C15.5765 54.0353 15.4916 54.0675 15.4041 54.09C15.3213 54.1111 15.2364 54.1218 15.151 54.122C14.987 54.1234 14.8267 54.0732 14.6927 53.9782C14.5608 53.8911 14.4565 53.7679 14.3919 53.6233C14.3707 53.5595 14.3495 53.4956 14.33 53.4335C14.3075 53.3611 14.2968 53.2856 14.2981 53.2099V53.0999C14.3001 53.0607 14.311 53.0224 14.33 52.9881C14.3551 52.8712 14.4093 52.7625 14.4875 52.6722C14.5857 52.5548 14.706 52.4577 14.8414 52.3865L19.6189 50.0069C19.6762 49.9685 19.7406 49.942 19.8082 49.9288C19.8714 49.9182 19.9353 49.9129 19.9993 49.9129C20.1608 49.9114 20.3194 49.9551 20.4576 50.0389C20.5924 50.1223 20.6971 50.2466 20.7566 50.3938C20.7985 50.4554 20.8257 50.5258 20.8363 50.5996C20.8472 50.6784 20.8525 50.7578 20.8522 50.8374V50.9332C20.8522 50.9549 20.8467 50.9763 20.8363 50.9953C20.826 51.0151 20.8206 51.0369 20.8203 51.0592C21.2116 50.8936 21.6199 50.7717 22.0377 50.6954C22.4506 50.6208 22.8679 50.5728 23.287 50.5517H23.4444C24.8341 50.5444 26.1866 51.0021 27.2877 51.8524C28.4367 52.7207 29.0111 54.0421 29.0111 55.8166V62.1587H30.5612C30.6945 62.1501 30.828 62.1697 30.9533 62.2162C31.0786 62.2627 31.1927 62.3349 31.2884 62.4284C31.4507 62.5927 31.5416 62.8146 31.5415 63.0459C31.5273 63.266 31.4328 63.4732 31.276 63.6279Z" fill="white"/>
<path d="M45.536 51.6732C45.3329 52.1268 45.0432 52.5362 44.6832 52.8781C44.5121 53.0689 44.3149 53.2344 44.0975 53.3696C43.8716 53.5097 43.6349 53.6313 43.3897 53.7334C43.4973 54.0158 43.5767 54.3083 43.6268 54.6064C43.6792 54.9046 43.7059 55.2068 43.7064 55.5097C43.7212 56.2575 43.5732 56.9996 43.2728 57.6842C42.9724 58.3688 42.5268 58.9796 41.967 59.4739C40.8711 60.5048 39.4211 61.0723 37.9185 61.0585C37.5095 61.0581 37.1016 61.0159 36.7012 60.9325C36.3027 60.8521 35.9154 60.724 35.5475 60.551C35.3304 60.7068 35.1428 60.9003 34.9936 61.1224C34.8421 61.3354 34.7593 61.59 34.7565 61.8517C34.7546 61.9828 34.7873 62.1122 34.8513 62.2265C34.9154 62.3409 35.0084 62.4363 35.121 62.5029C35.3795 62.665 35.662 62.7848 35.958 62.8578L36.4481 62.9217C36.5794 62.9409 36.7118 62.9516 36.8445 62.9536H38.3627C38.7215 62.9552 39.0801 62.9759 39.4367 63.0158C39.8218 63.0603 40.2028 63.135 40.5763 63.2393C41.6519 63.4937 42.6634 63.9686 43.5472 64.6341C44.4531 65.3096 44.9067 66.2501 44.9079 67.4555C44.9264 67.9908 44.8135 68.5224 44.579 69.0036C44.3445 69.4847 43.9956 69.9007 43.5631 70.2149C42.6793 70.8914 41.6744 71.392 40.6028 71.6895C40.1915 71.7935 39.7743 71.8729 39.3536 71.9272C38.9711 71.9786 38.5858 72.0052 38.1999 72.0071C37.8832 72.0071 37.5523 71.9911 37.2037 71.9592C36.8551 71.9272 36.4959 71.8811 36.142 71.8172C35.1121 71.6369 34.1346 71.231 33.279 70.6283C32.4262 70.025 31.9991 69.1105 31.998 67.885C31.9989 67.1618 32.2384 66.4592 32.6792 65.8869C33.1103 65.2954 33.6267 64.7715 34.2115 64.3324C34.2559 64.3097 34.2985 64.2836 34.3389 64.2543C34.3783 64.224 34.4204 64.1973 34.4646 64.1745C34.0274 63.968 33.6557 63.6444 33.3905 63.2393C33.1175 62.8313 32.9738 62.3501 32.9782 61.8588C32.9765 61.4222 33.0752 60.991 33.2667 60.5989C33.4499 60.2169 33.6957 59.8684 33.9939 59.5679C33.4174 59.0574 32.9544 58.4311 32.635 57.7295C32.3187 57.0327 32.1569 56.2753 32.1607 55.5097C32.1473 54.7667 32.296 54.0297 32.5964 53.3505C32.8969 52.6712 33.3419 52.066 33.9001 51.5774C34.9846 50.5495 36.4229 49.9812 37.915 49.991C38.7954 49.9904 39.665 50.1855 40.4612 50.5624C41.2528 50.9287 41.9505 51.4712 42.5014 52.1488C42.6854 52.1082 42.8617 52.0381 43.0234 51.9411C43.1784 51.8482 43.3216 51.7368 43.4498 51.6093C43.6371 51.4223 43.7873 51.2013 43.8922 50.9581C43.9975 50.7133 44.0512 50.4492 44.0497 50.1826C44.0405 50.0504 44.0613 49.9178 44.1107 49.7948C44.16 49.6719 44.2366 49.5618 44.3346 49.4728C44.4996 49.3225 44.7133 49.2374 44.9362 49.2333C45.1688 49.2335 45.3933 49.3187 45.5679 49.4728C45.6659 49.5618 45.7425 49.6719 45.7918 49.7948C45.8412 49.9178 45.862 50.0504 45.8528 50.1826C45.8556 50.6966 45.7476 51.2051 45.536 51.6732ZM40.0667 54.177C40.0005 54.0251 39.9261 53.877 39.8437 53.7334C39.5792 53.2526 39.2379 52.8186 38.8333 52.4487C38.4625 52.0797 37.9631 51.8697 37.4408 51.8631C37.3298 51.8636 37.219 51.8743 37.1099 51.895C36.9963 51.9156 36.8849 51.9471 36.7772 51.9891C36.5351 52.0757 36.3146 52.2143 36.1313 52.3951C35.9479 52.5759 35.806 52.7946 35.7156 53.036C35.515 53.5527 35.4049 54.1001 35.39 54.6543V54.7821C35.389 55.0743 35.4151 55.366 35.4679 55.6534C35.5209 55.9397 35.5799 56.1987 35.6448 56.4306C35.6855 56.5584 35.7386 56.695 35.8023 56.8441C35.8674 56.9961 35.9413 57.1442 36.0235 57.2877C36.3072 57.7647 36.6589 58.1975 37.0674 58.5724C37.4374 58.9416 37.9363 59.1516 38.4582 59.158C38.5646 59.1579 38.6707 59.1472 38.775 59.1261C38.8833 59.1052 38.9894 59.0737 39.0917 59.032C39.3342 58.946 39.555 58.8077 39.7384 58.6268C39.9219 58.4459 40.0635 58.2268 40.1534 57.9851C40.3553 57.4692 40.4678 56.9224 40.486 56.3685V56.2407C40.486 55.9438 40.4647 55.6473 40.4223 55.3535C40.3887 55.0933 40.3251 54.8378 40.233 54.5922C40.1817 54.4627 40.1286 54.3261 40.0667 54.177ZM41.1407 67.4963C41.1522 67.1281 41.0895 66.7614 40.9563 66.4181C40.8231 66.0747 40.6223 65.7619 40.3657 65.4983C40.1187 65.2409 39.8212 65.0377 39.492 64.9015C39.1628 64.7653 38.809 64.699 38.4529 64.7068C38.0778 64.702 37.7056 64.7724 37.358 64.9137C37.0104 65.0551 36.6944 65.2647 36.4287 65.5302C36.1484 65.8 35.9277 66.1258 35.7808 66.4865C35.6339 66.8471 35.5641 67.2347 35.5758 67.6241C35.5667 67.9682 35.6312 68.3103 35.7649 68.6274C35.8986 68.9445 36.0983 69.2292 36.3508 69.4625C36.8577 69.9443 37.5335 70.2063 38.2317 70.1918C38.977 70.1969 39.6978 69.9258 40.256 69.4305C40.5421 69.1913 40.7704 68.89 40.9237 68.5494C41.0769 68.2089 41.1511 67.8379 41.1407 67.4644V67.4963Z" fill="white"/>
<path d="M60.1765 61.3123C60.1515 61.3637 60.1308 61.4172 60.1146 61.472C59.9872 61.7258 59.8615 61.9848 59.7341 62.2492C59.6065 62.5159 59.4473 62.7661 59.2599 62.9945C58.9968 63.3227 58.6684 63.5922 58.2956 63.786C57.9189 63.9787 57.5011 64.0767 57.0782 64.0717C56.5791 64.0785 56.0856 63.9647 55.6396 63.7398C55.2043 63.5144 54.8544 63.1523 54.6434 62.7088C54.0994 63.1191 53.4969 63.4451 52.8563 63.6759C52.2109 63.9149 51.5345 64.059 50.848 64.1036H50.2322C50.1521 64.1029 50.0725 64.0921 49.9951 64.0717C49.2041 64.0133 48.4441 63.739 47.7974 63.2785C47.4751 63.0588 47.2144 62.7599 47.04 62.4105C46.8656 62.061 46.7834 61.6725 46.8012 61.2822C46.8012 60.1607 47.2017 59.2829 48.0027 58.6488C48.8215 58.0057 49.7404 57.5021 50.7223 57.1582C50.8094 57.1156 50.8993 57.0789 50.9913 57.0482C51.0897 57.0151 51.1902 56.9884 51.2921 56.9684C51.8261 56.7817 52.3695 56.623 52.92 56.4928C53.4579 56.3662 53.9374 56.2479 54.3585 56.1379V54.083C54.3688 53.7687 54.2981 53.457 54.1533 53.1781C54.0721 53.0501 53.9631 52.9422 53.8344 52.8626C53.7056 52.783 53.5606 52.7337 53.4101 52.7185C53.3489 52.6985 53.2851 52.6878 53.2208 52.6865H53.0315C52.9469 52.6874 52.8624 52.6927 52.7784 52.7025C52.6946 52.7139 52.61 52.7193 52.5254 52.7185C51.9498 52.8374 51.4066 53.0796 50.9329 53.4283C50.4581 53.7586 50.0368 54.1602 49.6837 54.6189C49.6231 54.6998 49.5543 54.7742 49.4784 54.8407C49.4128 54.8969 49.3443 54.9497 49.2731 54.9987C49.21 55.0409 49.1408 55.0732 49.0679 55.0945C49.0007 55.1147 48.931 55.1255 48.8609 55.1264C48.7844 55.128 48.7087 55.1116 48.6397 55.0785C48.5787 55.0471 48.5154 55.0204 48.4503 54.9987C48.3194 54.9102 48.207 54.7969 48.1195 54.6651C48.0246 54.5308 47.9744 54.37 47.9761 54.2055L48.0398 53.9517C48.062 53.864 48.0934 53.779 48.1336 53.698C48.6008 52.8077 49.2714 52.041 50.0906 51.4603C50.8999 50.8837 51.8505 50.539 52.8404 50.4631H52.9837C53.044 50.4621 53.1038 50.4513 53.1606 50.4311H53.4384C54.4084 50.4083 55.3659 50.6539 56.2059 51.1409C56.995 51.6141 57.3902 52.4541 57.3914 53.6607V61.3673C57.3871 61.4411 57.409 61.5141 57.4533 61.5732C57.506 61.6342 57.5712 61.6833 57.6444 61.7169H57.7382C57.8366 61.7196 57.9325 61.6854 58.0072 61.6211C58.0938 61.544 58.1732 61.4591 58.2443 61.3673L58.3876 61.0816C58.4389 60.9769 58.4973 60.8705 58.5645 60.7658C58.6318 60.6611 58.6601 60.5883 58.722 60.4801C58.7808 60.3816 58.8445 60.2862 58.9131 60.1944C58.9885 60.0964 59.0787 60.0108 59.1803 59.9406C59.2791 59.8759 59.395 59.8425 59.513 59.8448H59.6085C59.6416 59.849 59.6735 59.8599 59.7023 59.8768C59.7295 59.8779 59.7564 59.8833 59.7819 59.8927C59.8118 59.9022 59.8391 59.9186 59.8615 59.9406C60.0484 60.0206 60.1998 60.1662 60.2871 60.3502C60.3744 60.5342 60.3917 60.7438 60.3358 60.9397C60.3113 61.0217 60.2793 61.1013 60.2402 61.1775L60.1765 61.3123ZM54.3585 58.0153C54.148 58.0792 53.9215 58.1413 53.6791 58.2052C53.4367 58.2691 53.1889 58.3436 52.9359 58.427C52.2052 58.668 51.5046 58.9925 50.848 59.3941C50.2157 59.7833 49.8995 60.2961 49.8995 60.9326V61.0586C49.9139 61.226 49.969 61.3873 50.06 61.5283C50.1511 61.6694 50.2752 61.7859 50.4215 61.8677C50.7124 62.0441 51.0459 62.1374 51.3859 62.1375H51.5451C51.6519 62.1372 51.758 62.121 51.8601 62.0895C51.9662 62.0576 52.0706 62.0328 52.1768 62.0115C52.6216 61.8613 53.0424 61.6473 53.426 61.3762C53.7891 61.1281 54.1049 60.8168 54.3585 60.457V58.0153Z" fill="white"/>
<path d="M67.4171 50.5464C67.4391 50.6029 67.4499 50.6631 67.4489 50.7238V50.8835C67.4501 51.0264 67.4173 51.1675 67.3534 51.2952C67.2821 51.4307 67.1717 51.5414 67.0366 51.6128C66.703 51.8003 66.4251 52.0734 66.2315 52.4043C66.0321 52.7388 65.9281 53.1218 65.9307 53.5115V68.5841C65.9307 69.4713 65.5721 70.2627 64.8549 70.9583C64.1377 71.6539 63.2105 72.0023 62.0733 72.0035C61.2659 72.0293 60.467 71.8316 59.7642 71.4321C59.1543 71.0794 58.6933 70.5162 58.4672 69.8475C58.4463 69.8025 58.4354 69.7534 58.4353 69.7038V69.5263C58.4359 69.4786 58.4412 69.431 58.4513 69.3844C58.4612 69.3371 58.4666 69.2889 58.4672 69.2406C58.5108 69.0697 58.5858 68.9084 58.6884 68.7651C58.7786 68.6287 58.9129 68.5278 59.0688 68.4794C59.091 68.4791 59.1128 68.4737 59.1325 68.4634C59.1516 68.4534 59.1728 68.4479 59.1944 68.4474H59.3218C59.5272 68.4457 59.7273 68.5132 59.8898 68.6391C60.0568 68.7609 60.1703 68.9428 60.2066 69.1466C60.2545 69.4296 60.3808 69.6934 60.5711 69.9078C60.6784 70.0084 60.8053 70.0856 60.9439 70.1345C61.0825 70.1834 61.2297 70.2029 61.3762 70.1918C61.5867 70.2004 61.7962 70.1574 61.9865 70.0665C62.1767 69.9756 62.342 69.8395 62.4679 69.6701C62.7259 69.3358 62.8848 68.9355 62.9262 68.5149V53.6677L62.2627 54.0226C62.2402 54.0446 62.213 54.061 62.183 54.0705C62.1575 54.0799 62.1306 54.0853 62.1034 54.0865C62.0456 54.1064 61.9864 54.1224 61.9265 54.1344C61.8799 54.1443 61.8325 54.1496 61.7849 54.1503C61.6177 54.1554 61.4528 54.1099 61.3118 54.0197C61.1707 53.9295 61.06 53.7988 60.994 53.6446L60.9303 53.4547C60.9094 53.393 60.8986 53.3283 60.8984 53.2631C60.8985 53.0944 60.9483 52.9296 61.0417 52.7893C61.15 52.6289 61.2966 52.4984 61.4682 52.4096L66.2121 50.03C66.2691 49.991 66.3336 49.9644 66.4014 49.9519C66.464 49.9413 66.5273 49.936 66.5907 49.9359C66.7522 49.9342 66.911 49.9779 67.049 50.0619C67.1843 50.1452 67.2896 50.2695 67.3498 50.4168C67.3764 50.447 67.3976 50.4949 67.4171 50.5464ZM65.3928 46.804C65.2345 46.9734 65.0424 47.1076 64.829 47.1978C64.6156 47.288 64.3857 47.3322 64.1542 47.3274C63.9286 47.3293 63.7051 47.2836 63.4981 47.1934C63.2912 47.1033 63.1054 46.9706 62.9527 46.804C62.7911 46.6449 62.663 46.4548 62.5761 46.2451C62.4892 46.0353 62.4451 45.8102 62.4467 45.5831C62.4522 45.1307 62.6339 44.6983 62.9529 44.3784C63.2719 44.0584 63.7031 43.8762 64.1542 43.8707C64.3843 43.866 64.6129 43.9086 64.8259 43.9959C65.0389 44.0831 65.2319 44.2133 65.3928 44.3782C65.5548 44.5337 65.6833 44.7208 65.7703 44.9281C65.8574 45.1353 65.9011 45.3582 65.8989 45.5831C65.9006 45.8101 65.8569 46.0351 65.7703 46.2449C65.6837 46.4546 65.5559 46.6447 65.3946 46.804H65.3928Z" fill="white"/>
<path d="M79.8457 62.3433C79.2492 63.041 78.5061 63.5976 77.6697 63.9731C76.8332 64.3486 75.9243 64.5338 75.008 64.5152C74.0874 64.532 73.1743 64.3462 72.333 63.971C71.4917 63.5957 70.7426 63.0401 70.1385 62.3433C68.8786 60.9871 68.1782 59.2024 68.1782 57.3489C68.1782 55.4954 68.8786 53.7108 70.1385 52.3546C70.7426 51.6578 71.4917 51.1022 72.333 50.7269C73.1743 50.3517 74.0874 50.1659 75.008 50.1827C75.9237 50.1632 76.8323 50.3473 77.6687 50.7216C78.5051 51.0959 79.2485 51.6511 79.8457 52.3475C81.0865 53.7133 81.7742 55.4943 81.7742 57.3418C81.7742 59.1894 81.0865 60.9704 79.8457 62.3362V62.3433ZM78.2638 56.0012C78.1806 55.8007 78.0869 55.5949 77.9807 55.3837C77.5335 54.612 76.9673 53.9161 76.3033 53.3217C75.6085 52.6865 74.8499 52.3801 74.0277 52.4026H73.711C73.6634 52.4031 73.616 52.4084 73.5695 52.4185C73.5164 52.4292 73.458 52.4451 73.3925 52.4647C73.0416 52.5308 72.7107 52.6773 72.4256 52.8927C72.1404 53.1082 71.9088 53.3868 71.7487 53.7068C71.4128 54.3564 71.2186 55.0701 71.1789 55.8007V56.1183C71.1782 56.469 71.2101 56.8189 71.2745 57.1635C71.3382 57.5024 71.4107 57.8201 71.4957 58.1146C71.5594 58.3063 71.6319 58.5015 71.7168 58.702C71.8018 58.9025 71.8938 59.1101 72.0017 59.3213C72.4297 60.0962 72.9855 60.7928 73.6455 61.3815C74.3415 62.0167 75.1006 62.3231 75.9228 62.3007H76.2396C76.2871 62.3006 76.3345 62.2959 76.3811 62.2865C76.441 62.2742 76.5001 62.2582 76.5581 62.2386C76.9158 62.1647 77.2523 62.0108 77.5424 61.7884C77.8326 61.5659 78.0689 61.2807 78.2337 60.9538C78.5704 60.2788 78.7518 59.5365 78.7646 58.7819V58.5583C78.765 58.2078 78.7389 57.8578 78.6867 57.5113C78.6395 57.2005 78.5709 56.8934 78.4815 56.5921C78.4231 56.3969 78.3487 56.2017 78.2638 56.0012Z" fill="white"/>
<path d="M95.9778 52.5853C95.4027 51.9094 94.6853 51.3697 93.8773 51.0052C93.0692 50.6406 92.1906 50.4603 91.3047 50.4772C90.6541 50.4772 90.0078 50.5845 89.3919 50.7949C88.7734 51.005 88.1836 51.2924 87.6366 51.6502V45.7819C87.6313 45.4008 87.7357 45.0261 87.9374 44.703C88.1373 44.3869 88.4014 44.1167 88.7125 43.9098C88.8799 43.8072 89.0206 43.6661 89.123 43.4982C89.2037 43.3642 89.2477 43.2111 89.2504 43.0545C89.2504 42.9909 89.2451 42.9274 89.2344 42.8647C89.2221 42.7963 89.1949 42.7315 89.1548 42.6748C89.0918 42.5264 88.9874 42.3994 88.854 42.3093C88.7199 42.2149 88.5596 42.1652 88.3957 42.1673C88.3263 42.1686 88.2573 42.1788 88.1905 42.1975C88.1087 42.222 88.0293 42.2541 87.9534 42.2933L83.1758 44.6711C83.0408 44.7429 82.9207 44.8399 82.8219 44.9568C82.7383 45.0586 82.6839 45.1813 82.6645 45.3117C82.654 45.3221 82.6458 45.3346 82.6403 45.3483C82.6348 45.362 82.6322 45.3768 82.6326 45.3915V45.4696C82.6319 45.55 82.6426 45.6301 82.6645 45.7074C82.6839 45.7819 82.7052 45.8511 82.7264 45.9132C82.7894 46.0617 82.8939 46.1886 83.0272 46.2788C83.1613 46.3732 83.3217 46.4229 83.4855 46.4208C83.5656 46.4213 83.6454 46.4106 83.7226 46.3888C83.8047 46.366 83.8842 46.3345 83.9597 46.2948L84.6551 45.9399V63.3192C84.6507 63.4234 84.6697 63.5273 84.7108 63.6231C84.7518 63.719 84.8138 63.8043 84.8922 63.8729C85.0499 64.0101 85.241 64.1032 85.446 64.1426C85.4965 64.1663 85.5502 64.1825 85.6053 64.1905C85.6678 64.2012 85.7312 64.2065 85.7946 64.2065C85.9576 64.2075 86.119 64.1748 86.2688 64.1106C86.4063 64.0582 86.5281 63.9715 86.6227 63.8587L87.3199 62.9377C87.8704 63.4054 88.5028 63.7665 89.1849 64.0024C89.8671 64.2433 90.585 64.3663 91.3082 64.3662C92.1953 64.3841 93.0753 64.2043 93.8847 63.8398C94.694 63.4752 95.4126 62.935 95.9884 62.2581C97.1896 60.9353 97.8552 59.2107 97.8552 57.4217C97.8552 55.6327 97.1896 53.9081 95.9884 52.5853H95.9778ZM94.7392 57.199V57.467C94.7384 57.5682 94.7283 57.6692 94.7091 57.7686C94.593 58.8239 94.1612 59.8192 93.4705 60.6238C93.1397 61.0408 92.7174 61.3756 92.2365 61.6021C91.7556 61.8286 91.229 61.9408 90.6978 61.9298C90.0909 61.9314 89.495 61.767 88.9743 61.4542C88.4489 61.1487 87.9913 60.7387 87.6296 60.2494V54.1558C88.0046 53.6744 88.4595 53.2615 88.9743 52.9349C89.4893 52.6073 90.088 52.4365 90.6978 52.4434C91.2358 52.4275 91.7699 52.5399 92.2562 52.7712C92.7425 53.0026 93.1672 53.3463 93.4953 53.7742C94.1827 54.6153 94.6069 55.6413 94.7144 56.7234C94.7354 56.7961 94.7455 56.8714 94.7445 56.947L94.7392 57.199Z" fill="white"/>
<path d="M107.736 62.856C106.93 63.5225 105.976 63.9834 104.954 64.1993C104.704 64.262 104.451 64.3094 104.195 64.3413C103.954 64.3724 103.711 64.3884 103.468 64.3892C102.97 64.3917 102.472 64.349 101.982 64.2614C101.549 64.1843 101.126 64.0655 100.716 63.9065C100.625 63.9518 100.53 63.9886 100.432 64.0165C100.329 64.048 100.222 64.0642 100.115 64.0645C99.9407 64.0408 99.7736 63.9803 99.6247 63.887C99.4656 63.7902 99.3478 63.6379 99.2938 63.4594L98.5028 61.0798C98.4822 61.0229 98.4714 60.9628 98.471 60.9023V60.7604C98.4637 60.5731 98.5192 60.3888 98.6284 60.2369C98.7268 60.1047 98.858 60.0007 99.0089 59.9352C99.0586 59.9111 99.1117 59.895 99.1664 59.8873C99.2289 59.8768 99.2923 59.8714 99.3557 59.8713H99.4831C99.6161 59.8938 99.7393 59.9556 99.837 60.0488C99.9465 60.1468 100.033 60.268 100.09 60.4037L100.444 61.2608C100.614 61.5585 100.867 61.8007 101.171 61.9581C101.491 62.1285 101.831 62.2562 102.183 62.3379C102.371 62.3803 102.562 62.4123 102.753 62.4337C102.929 62.4541 103.106 62.4648 103.284 62.4656C103.665 62.4673 104.045 62.4073 104.407 62.2882C104.738 62.1795 105.052 62.0248 105.34 61.8286C105.564 61.6888 105.754 61.4995 105.894 61.275C106.006 61.0903 106.055 60.8744 106.035 60.6592C106.032 60.356 105.92 60.0642 105.719 59.8376C105.482 59.5804 105.187 59.3849 104.859 59.268L102.992 58.4943C102.361 58.2293 101.729 57.9602 101.095 57.6869C100.44 57.4117 99.8798 56.9503 99.4831 56.3596C99.07 55.7778 98.8485 55.0811 98.8496 54.3669C98.8512 53.8141 99.0049 53.2725 99.2938 52.8017C99.5956 52.302 100.006 51.8774 100.495 51.5596C100.861 51.3017 101.26 51.094 101.681 50.9421C102.115 50.7823 102.565 50.6704 103.024 50.6085C103.103 50.6089 103.182 50.6035 103.261 50.5925C103.339 50.5816 103.419 50.5763 103.498 50.5765C103.565 50.5548 103.635 50.544 103.705 50.5446H103.942C104.243 50.545 104.544 50.5609 104.843 50.5925C105.137 50.6237 105.428 50.6831 105.712 50.77C105.784 50.6208 105.897 50.4947 106.036 50.4052C106.176 50.3157 106.337 50.2663 106.503 50.2625H106.566C106.742 50.2866 106.91 50.3523 107.056 50.4541C107.214 50.5596 107.332 50.7162 107.389 50.8977C107.558 51.3413 107.721 51.785 107.879 52.2286C108.037 52.6722 108.19 53.1271 108.337 53.5932C108.357 53.6556 108.373 53.719 108.385 53.783C108.394 53.8353 108.399 53.8881 108.401 53.941C108.388 54.13 108.322 54.3114 108.21 54.4644C108.109 54.5998 107.964 54.6952 107.8 54.7342C107.772 54.7353 107.745 54.7407 107.72 54.7501C107.695 54.7594 107.669 54.7648 107.642 54.7661C107.632 54.7766 107.619 54.7849 107.606 54.7904C107.592 54.7958 107.577 54.7985 107.562 54.7981H107.483C107.312 54.7971 107.146 54.7418 107.009 54.6401C106.847 54.5195 106.724 54.3542 106.655 54.1646C106.612 54.0581 106.575 53.9534 106.543 53.8469C106.511 53.7405 106.474 53.6358 106.432 53.5293C106.301 53.2485 106.085 53.0158 105.816 52.8639C105.544 52.7006 105.252 52.5724 104.947 52.4823C104.756 52.4415 104.577 52.4096 104.416 52.3883C104.259 52.3678 104.101 52.3571 103.942 52.3564C103.836 52.3564 103.724 52.3564 103.609 52.3723C103.498 52.3823 103.387 52.3983 103.277 52.4202C102.894 52.483 102.53 52.6342 102.215 52.8621C102.057 52.9705 101.929 53.1175 101.844 53.2892C101.758 53.4608 101.717 53.6516 101.725 53.8434C101.725 53.947 101.745 54.0497 101.786 54.1449C101.827 54.2402 101.887 54.326 101.962 54.397C102.12 54.5521 102.308 54.6729 102.514 54.7519L103.448 55.1317C103.753 55.2594 104.064 55.386 104.381 55.5114C104.478 55.5711 104.578 55.6244 104.682 55.6711L104.981 55.7971C105.191 55.8805 105.398 55.9657 105.598 56.0491C105.798 56.1325 106.004 56.2176 106.214 56.3028C106.995 56.6391 107.677 57.1714 108.194 57.8484C108.719 58.5119 109.003 59.3349 108.999 60.1819C109.012 60.6957 108.905 61.2055 108.685 61.67C108.466 62.1345 108.141 62.5408 107.736 62.856Z" fill="white"/>
</svg>
